<svg width="34" height="35" viewBox="0 0 34 35" fill="none" xmlns="http://www.w3.org/2000/svg">
<path fill-rule="evenodd" clip-rule="evenodd" d="M10.5223 0H23.1491C28.9595 0 33.6714 4.77102 33.6714 10.6544V23.4396C33.6714 29.3229 28.9595 34.0939 23.1491 34.0939H10.5223C4.71189 34.0939 0 29.3229 0 23.4396V10.6544C0 4.77102 4.71189 0 10.5223 0ZM23.1486 30.8976C27.2102 30.8976 30.5142 27.5521 30.5142 23.4396V10.6543C30.5142 6.54176 27.2102 3.19629 23.1486 3.19629H10.5219C6.46025 3.19629 3.15625 6.54176 3.15625 10.6543V23.4396C3.15625 27.5521 6.46025 30.8976 10.5219 30.8976H23.1486Z" fill="white"/>
<path fill-rule="evenodd" clip-rule="evenodd" d="M8.41724 17.0472C8.41724 12.3401 12.1863 8.52368 16.8351 8.52368C21.4838 8.52368 25.2529 12.3401 25.2529 17.0472C25.2529 21.7543 21.4838 25.5706 16.8351 25.5706C12.1863 25.5706 8.41724 21.7543 8.41724 17.0472ZM11.5742 17.0471C11.5742 19.9835 13.9354 22.3743 16.8354 22.3743C19.7353 22.3743 22.0965 19.9835 22.0965 17.0471C22.0965 14.1087 19.7353 11.72 16.8354 11.72C13.9354 11.72 11.5742 14.1087 11.5742 17.0471Z" fill="white"/>
<ellipse cx="25.8845" cy="7.88478" rx="1.12168" ry="1.13575" fill="white"/>
</svg>
