<svg width="34" height="32" viewBox="0 0 34 32" fill="none" xmlns="http://www.w3.org/2000/svg">
<path d="M33.2379 4.46627C32.018 5.07145 30.7181 5.47258 29.3629 5.66735C30.7571 4.72597 31.8212 3.24665 32.3215 1.46358C31.0216 2.34005 29.5864 2.95913 28.0569 3.30462C26.8226 1.81834 25.0635 0.897827 23.1444 0.897827C19.4211 0.897827 16.4235 4.31556 16.4235 8.50541C16.4235 9.10827 16.4686 9.68794 16.5794 10.2398C10.9882 9.9314 6.04089 6.90089 2.71737 2.2844C2.13714 3.42287 1.79679 4.72597 1.79679 6.12877C1.79679 8.76279 2.99621 11.0977 4.78406 12.4495C3.70356 12.4263 2.64356 12.0715 1.74553 11.5127C1.74553 11.5359 1.74553 11.5661 1.74553 11.5962C1.74553 15.2922 4.07671 18.3621 7.13369 19.0693C6.58626 19.2386 5.98963 19.3197 5.37044 19.3197C4.93988 19.3197 4.50522 19.2919 4.09721 19.1899C4.96859 22.2019 7.44123 24.4162 10.3813 24.4881C8.09322 26.5123 5.18797 27.7319 2.04283 27.7319C1.4913 27.7319 0.962324 27.7041 0.43335 27.6276C3.41242 29.8002 6.94301 31.0407 10.7504 31.0407C23.1259 31.0407 29.8919 19.4473 29.8919 9.3981C29.8919 9.0619 29.8816 8.73728 29.8673 8.41499C31.202 7.34376 32.3235 6.00588 33.2379 4.46627Z" fill="white"/>
</svg>
